<?xml version="1.0" encoding="UTF-8" standalone="no"?>
<!-- Created with Inkscape (http://www.inkscape.org/) -->

<svg
   width="512"
   height="512"
   viewBox="0 0 512 512"
   version="1.1"
   id="svg1"
   inkscape:version="1.3.2 (091e20ef0f, 2023-11-25)"
   sodipodi:docname="CameraTrainerIcon.svg"
   inkscape:export-filename="CameraTrainerIcon.png"
   inkscape:export-xdpi="192"
   inkscape:export-ydpi="192"
   xmlns:inkscape="http://www.inkscape.org/namespaces/inkscape"
   xmlns:sodipodi="http://sodipodi.sourceforge.net/DTD/sodipodi-0.dtd"
   xmlns:xlink="http://www.w3.org/1999/xlink"
   xmlns="http://www.w3.org/2000/svg"
   xmlns:svg="http://www.w3.org/2000/svg">
  <sodipodi:namedview
     id="namedview1"
     pagecolor="#ffffff"
     bordercolor="#000000"
     borderopacity="0.25"
     inkscape:showpageshadow="2"
     inkscape:pageopacity="0.0"
     inkscape:pagecheckerboard="0"
     inkscape:deskcolor="#d1d1d1"
     inkscape:document-units="px"
     showgrid="true"
     inkscape:zoom="3.5566406"
     inkscape:cx="233.2257"
     inkscape:cy="248.68973"
     inkscape:window-width="3840"
     inkscape:window-height="2019"
     inkscape:window-x="0"
     inkscape:window-y="32"
     inkscape:window-maximized="1"
     inkscape:current-layer="layer1">
    <inkscape:grid
       id="grid2"
       units="px"
       originx="0"
       originy="0"
       spacingx="1"
       spacingy="1"
       empcolor="#0099e5"
       empopacity="0.30196078"
       color="#0099e5"
       opacity="0.14901961"
       empspacing="5"
       dotted="false"
       gridanglex="30"
       gridanglez="30"
       visible="true" />
  </sodipodi:namedview>
  <defs
     id="defs1">
    <linearGradient
       id="swatch4"
       inkscape:swatch="solid">
      <stop
         style="stop-color:#000000;stop-opacity:1;"
         offset="0"
         id="stop4" />
    </linearGradient>
    <linearGradient
       inkscape:collect="always"
       xlink:href="#swatch4"
       id="linearGradient4"
       x1="188.25581"
       y1="240.30069"
       x2="317.7142"
       y2="240.30069"
       gradientUnits="userSpaceOnUse"
       gradientTransform="matrix(1.0298504,0,0,1.0334512,5.6595785,97.662527)" />
  </defs>
  <g
     inkscape:label="Layer 1"
     inkscape:groupmode="layer"
     id="layer1">
    <rect
       style="fill:#008000;fill-opacity:1;stroke:none;stroke-width:18.1404;stroke-dasharray:none"
       id="rect14"
       width="549.79755"
       height="569.63306"
       x="22.998907"
       y="24.065079"
       inkscape:label="rect14"
       transform="matrix(0.93125188,0,0,0.89882424,-21.450484,-21.235211)" />
    <g
       id="g12"
       transform="matrix(0.93125188,0,0,0.89882424,-24.321915,-20.954047)">
      <path
         id="rect1"
         style="fill:#000000;stroke:#ffffff;stroke-width:5.95041;stroke-dasharray:none;stroke-opacity:1"
         d="m 193.9271,204.81849 c -16.46215,0 -29.71481,13.299 -29.71481,29.81871 v 8.91553 H 83.487709 c -16.462142,0 -29.714806,13.299 -29.714806,29.81869 v 152.25844 c 0,16.51971 13.252664,29.81871 29.714806,29.81871 H 450.3659 c 16.46213,0 29.71479,-13.299 29.71479,-29.81871 V 273.37142 c 0,-16.51969 -13.25266,-29.81869 -29.71479,-29.81869 h -83.87448 v -8.91553 c 0,-16.51971 -13.25268,-29.81871 -29.71481,-29.81871 z" />
      <ellipse
         style="fill:url(#linearGradient4);stroke:#ffffff;stroke-width:18.7145;stroke-dasharray:none"
         id="path3"
         cx="266.19629"
         cy="346.00156"
         rx="66.146461"
         ry="66.377533" />
      <path
         sodipodi:type="star"
         style="fill:#fdff00;fill-opacity:1;stroke:#ffffff;stroke-width:1.4;stroke-dasharray:none"
         id="path4"
         inkscape:flatsided="false"
         sodipodi:sides="5"
         sodipodi:cx="175.2925"
         sodipodi:cy="116.36868"
         sodipodi:r1="13.246536"
         sodipodi:r2="6.6232677"
         sodipodi:arg1="0.5607605"
         sodipodi:arg2="1.189079"
         inkscape:rounded="0"
         inkscape:randomized="0"
         d="m 186.51034,123.41359 -8.75058,-0.89834 -5.70087,6.69923 -1.8497,-8.5999 -8.13301,-3.35167 7.6074,-4.41668 0.67439,-8.77068 6.55133,5.87023 8.54981,-2.0689 -3.55846,8.04469 z"
         inkscape:transform-center-x="1.8208486"
         inkscape:transform-center-y="0.49122824"
         transform="matrix(1.8222415,0,0,1.7776467,-119.12903,33.83611)" />
    </g>
    <g
       id="g13"
       transform="matrix(1.3098566,0.3759341,-0.52747017,0.93354991,36.524222,-58.187223)"
       style="stroke:#ffffff">
      <g
         id="g14"
         transform="matrix(0.68114346,0.04107971,-0.03879554,0.65247324,97.014459,48.812638)"
         style="stroke-width:5.27652;stroke-dasharray:none">
        <path
           style="fill:#000000;fill-opacity:1;stroke:#ffffff;stroke-width:5.27652;stroke-dasharray:none"
           d="m 195.90016,104.88965 -18.71462,35.80803 c 73.77979,-32.95743 116.9822,51.75129 116.9822,51.75129 8.7012,-48.95666 78.1912,-65.76321 108.69589,-36.86839 0.78799,0.7464 -22.15165,-46.5663 -22.15165,-46.5663"
           id="path13"
           sodipodi:nodetypes="cccsc" />
        <rect
           style="fill:#000000;fill-opacity:1;stroke:#ffffff;stroke-width:6.67412;stroke-dasharray:none"
           id="rect10"
           width="168.66347"
           height="166.95483"
           x="190.46617"
           y="-116.29281"
           transform="matrix(0.9391452,0.34352045,-0.94780423,0.31885285,0,0)" />
      </g>
    </g>
  </g>
</svg>
